<svg xmlns="http://www.w3.org/2000/svg" viewBox="166 169 894 894" width="512" height="512">
  <g transform="translate(0.000000,1229.000000) scale(0.100000,-0.100000)" fill="#e73c04">
<path d="M4826 9694 c-264 -41 -473 -148 -667 -343 -193 -195 -319 -435 -359
-684 -13 -76 -9 -272 7 -341 6 -28 5 -29 -23 -22 -16 3 -94 9 -174 12 -524 24
-992 -260 -1176 -710 -126 -309 -141 -719 -38 -1008 139 -385 483 -707 954
-893 52 -20 98 -40 102 -44 3 -3 -2 -44 -13 -91 -83 -375 -126 -928 -100
-1285 87 -1197 579 -1603 2091 -1727 244 -20 1222 -17 1467 5 1064 94 1577
336 1837 864 224 454 264 1265 105 2082 -17 84 -29 154 -27 156 2 1 35 15 73
30 525 206 905 581 1014 998 82 314 39 709 -107 992 -226 438 -735 692 -1251
625 -41 -6 -75 -9 -76 -7 -1 1 2 56 8 122 42 483 -218 947 -647 1155 -198 96
-403 136 -656 127 -385 -13 -689 -127 -946 -354 l-79 -70 -60 54 c-307 280
-821 425 -1259 357z m506 -314 c285 -60 557 -224 689 -416 77 -113 195 -102
281 25 172 250 490 403 873 418 473 19 824 -204 959 -609 63 -188 50 -524 -25
-629 -62 -87 -20 -212 81 -239 33 -9 52 -6 142 23 153 50 226 62 383 62 310
-1 581 -135 751 -371 183 -254 227 -684 102 -990 -127 -307 -505 -601 -943
-731 -151 -45 -169 -93 -115 -315 182 -748 159 -1641 -52 -2063 -259 -517
-992 -724 -2488 -702 -1375 21 -1989 241 -2201 790 -175 454 -182 1249 -17
1952 62 265 54 284 -173 358 -485 160 -815 454 -921 822 -36 124 -33 436 5
580 143 543 681 802 1265 610 130 -43 169 -39 221 20 43 50 49 96 21 170 -79
210 -99 425 -52 575 94 301 327 548 599 639 166 55 413 64 615 21z"/>
<path d="M5015 9180 c-285 -45 -512 -237 -597 -504 -28 -87 -35 -277 -14 -376
53 -254 258 -467 522 -541 114 -33 306 -33 418 -1 418 120 637 533 500 944
-107 323 -472 533 -829 478z m269 -318 c114 -30 210 -114 264 -230 40 -86 40
-259 -1 -346 -75 -161 -213 -247 -402 -249 -275 -4 -469 188 -452 447 19 291
283 461 591 378z"/>
<path d="M7060 9184 c-327 -38 -576 -244 -656 -544 -42 -156 -16 -372 61 -520
214 -405 781 -513 1151 -219 256 203 334 581 184 884 -130 264 -443 433 -740
399z m173 -309 c346 -73 466 -486 211 -725 -217 -202 -601 -136 -720 125 -154
336 137 679 509 600z"/>
<path d="M8545 7743 c-334 -46 -570 -248 -646 -552 -33 -133 -25 -229 23 -278
33 -32 44 -37 95 -40 106 -7 151 40 164 174 9 82 35 160 72 214 14 19 17 16
55 -63 61 -125 150 -238 268 -338 76 -65 124 -139 139 -217 8 -38 -16 -53 -83
-53 -159 0 -211 -212 -70 -286 33 -17 118 -18 190 -3 151 32 251 140 265 283
6 63 6 63 67 68 198 16 315 196 287 440 -33 279 -200 501 -450 597 -106 41
-286 67 -376 54z m224 -322 c185 -57 294 -196 295 -376 1 -90 1 -90 -41 -88
-86 4 -260 120 -356 238 -79 97 -133 219 -105 236 24 15 145 9 207 -10z"/>
<path d="M3504 7719 c-122 -47 -188 -151 -188 -299 0 -85 0 -85 -86 -85 -218
0 -334 -115 -334 -330 1 -382 292 -684 688 -712 126 -9 192 34 203 131 11 93
-62 165 -167 166 -156 1 -322 102 -384 234 -33 70 -55 191 -38 208 18 18 134
-5 245 -48 127 -49 189 -39 238 39 28 44 21 110 -24 222 -20 50 -39 115 -43
144 -7 54 -7 54 72 49 227 -15 376 -162 403 -398 13 -119 59 -170 151 -170
101 0 158 79 146 204 -36 388 -345 667 -736 665 -69 0 -109 -5 -146 -20z"/>
<path d="M5988 7155 c-756 -123 -1672 -1170 -1869 -2135 -31 -152 -34 -463 -6
-605 94 -472 390 -805 843 -948 267 -85 452 -83 924 10 160 31 373 24 580 -20
370 -77 620 -71 885 23 673 239 981 922 759 1686 -171 593 -665 1295 -1183
1685 -327 245 -649 350 -933 304z"/>
  </g>
</svg>
